# xmcd CD database file
#
# Track frame offsets:
#	150
#	28955
#	49494
#	71935
#	93747
#	116919
#	136801
#	159996
#	182198
#	207178
#	228657
#	249043
#	271850
#	293995
#	313499
#
# Disc length: 4482 seconds
#
# Revision: 0
# Processed by: cddbd v1.5PL3 Copyright (c) Steve Scherf et al.
# Submitted via: CDex 1.51
#
DISCID=ec11800f
DTITLE=Frankie Ruiz - Serie de Oro, Vol. 2
DYEAR=1900
DGENRE=Salsa
TTITLE0=Dile a el
TTITLE1=que se mueran de envidia
TTITLE2=como lo hacen
TTITLE3=para darte fuego
TTITLE4=tranquilo
TTITLE5=no me hables mal de ella
TTITLE6=lo dudo
TTITLE7=quiero verte
TTITLE8=tu eres
TTITLE9=esta cobardia
TTITLE10=y no puedo
TTITLE11=amantes de otro tiempo
TTITLE12=imposible amor
TTITLE13=senora
TTITLE14=vuelvo a nacer
EXTD=
EXTT0=
EXTT1=
EXTT2=
EXTT3=
EXTT4=
EXTT5=
EXTT6=
EXTT7=
EXTT8=
EXTT9=
EXTT10=
EXTT11=
EXTT12=
EXTT13=
EXTT14=
PLAYORDER=
